<svg width="390" height="464" viewBox="0 0 390 464" fill="none" xmlns="http://www.w3.org/2000/svg">
<path fill-rule="evenodd" clip-rule="evenodd" d="M165.096 83.3089C155.723 90.7948 147.873 100.093 141.948 110.679C132.242 108.649 121.782 108.218 111.192 109.806C113.85 97.7115 119.296 86.328 127.164 76.8191C128.995 74.6166 131.706 73.435 134.488 73.6453C145.315 74.4496 155.77 77.809 165.096 83.3089ZM191.499 140.307C200.877 129.453 211.85 121.512 223.519 116.327C216.573 105.42 206.969 96.4556 195.463 90.4298C192.97 89.1244 190.029 89.1244 187.536 90.4298C176.03 96.4556 166.425 105.42 159.479 116.327C171.15 121.512 182.121 129.453 191.499 140.307ZM247.997 231.999C256.089 227.774 263.513 222.193 269.987 215.413C289.52 194.947 296.36 164.676 287.613 137.195C286.732 134.429 284.653 132.252 282.013 131.33C255.799 122.18 226.892 129.313 207.335 149.791C200.861 156.571 195.528 164.348 191.499 172.83C187.471 164.348 182.137 156.571 175.664 149.791C156.124 129.332 127.223 122.167 100.986 131.33C98.3393 132.252 96.2661 134.429 95.386 137.195C86.6501 164.651 93.4604 194.929 113.011 215.413C119.479 222.187 126.91 227.774 135.002 231.999C126.91 236.225 119.485 241.805 113.011 248.586C93.4782 269.051 86.6382 299.323 95.386 326.804C96.2661 329.569 98.3452 331.747 100.986 332.669C127.199 341.819 156.107 334.686 175.664 314.208C182.137 307.427 187.471 299.65 191.499 291.169C195.528 299.65 200.861 307.427 207.335 314.208C226.981 334.785 255.917 341.782 282.013 332.669C284.659 331.747 286.732 329.569 287.613 326.804C296.349 299.347 289.538 269.07 269.987 248.586C263.519 241.811 256.089 236.225 247.997 231.999ZM323.466 236.151C318.162 247.262 310.477 256.672 301.151 263.78C296.139 252.074 288.805 241.254 279.042 231.999C288.408 223.121 295.923 212.433 301.145 200.212C310.471 207.321 318.162 216.737 323.466 227.848C324.712 230.459 324.712 233.54 323.466 236.151ZM81.8538 263.786C87.0759 251.566 94.5904 240.877 103.957 231.999C94.194 222.745 86.8597 211.924 81.8479 200.218C72.5213 207.327 64.8367 216.737 59.5325 227.848C58.2862 230.459 58.2862 233.54 59.5325 236.151C64.8367 247.262 72.5272 256.678 81.8538 263.786ZM223.637 347.721C216.733 358.251 207.329 366.912 196.112 372.789C193.681 374.057 190.76 374.128 188.192 372.789C176.815 366.831 167.3 358.003 160.371 347.263C172.112 341.894 182.655 333.927 191.499 323.692C200.892 334.562 211.9 342.519 223.637 347.721ZM339.656 303.016C330.424 311.399 319.337 317.153 307.571 319.881C309.774 307.409 309.574 294.577 306.939 282.105C316.165 275.956 324.281 268.074 330.867 258.812C337.654 269.651 341.794 282.241 342.686 295.345C342.887 298.258 341.759 301.098 339.656 303.016ZM255.835 387.179C263.708 377.671 269.148 366.281 271.806 354.186C261.708 355.716 251.238 355.42 241.239 353.351C235.191 363.918 227.211 373.167 217.707 380.578C227.081 386.146 237.613 389.543 248.51 390.353C248.723 390.372 248.93 390.378 249.142 390.378C251.7 390.378 254.145 389.221 255.835 387.179ZM134.488 390.353C145.681 389.518 156.479 385.961 166.036 380.133C156.703 372.746 148.871 363.571 142.923 353.116C132.628 355.378 121.771 355.794 111.192 354.192C113.85 366.287 119.296 377.671 127.164 387.179C128.853 389.221 131.299 390.378 133.856 390.378C134.069 390.378 134.275 390.372 134.488 390.353ZM271.806 109.806C261.217 108.218 250.757 108.649 241.05 110.679C235.126 100.093 227.276 90.7948 217.902 83.3089C227.229 77.809 237.684 74.4496 248.51 73.6453C251.292 73.435 254.004 74.6166 255.835 76.8191C263.702 86.328 269.148 97.7115 271.806 109.806ZM43.3424 304.173C52.6336 312.612 63.7972 318.384 75.6518 321.087C73.2124 308.238 73.3423 294.973 76.0653 282.105C67.0163 276.079 59.0364 268.389 52.5213 259.357C45.5042 270.332 41.216 283.151 40.3123 296.501C40.1114 299.415 41.2396 302.255 43.3424 304.173ZM342.686 168.654C341.794 181.757 337.654 194.347 330.867 205.186C324.281 195.919 316.165 188.043 306.933 181.893C309.568 169.427 309.774 156.59 307.571 144.118C319.337 146.846 330.424 152.6 339.656 160.983C341.759 162.9 342.887 165.74 342.686 168.654ZM52.1315 205.186C58.7174 195.925 66.8332 188.043 76.0594 181.893C73.425 169.421 73.2301 156.584 75.4274 144.118C63.6613 146.846 52.5745 152.6 43.3424 160.983C41.2396 162.9 40.1114 165.74 40.3123 168.654C41.2042 181.757 45.3447 194.347 52.1315 205.186ZM164.919 231.999C164.919 216.65 176.845 204.159 191.499 204.159C206.154 204.159 218.079 216.65 218.079 231.999C218.079 247.348 206.154 259.839 191.499 259.839C176.845 259.839 164.919 247.348 164.919 231.999ZM182.639 231.999C182.639 237.122 186.609 241.279 191.499 241.279C196.39 241.279 200.359 237.122 200.359 231.999C200.359 226.877 196.39 222.719 191.499 222.719C186.609 222.719 182.639 226.877 182.639 231.999Z" fill="#F35656"/>
<path d="M122.571 372.237C112.052 372.325 103.783 372.815 96.7821 373.848C79.9496 376.334 69.9418 382.171 65.5087 393.18C63.2457 398.801 64.3355 403.658 68.4911 407.441C72.0589 410.689 77.8633 413.145 85.764 414.944L86.205 415.043C99.7209 418.048 118.911 419.135 143.247 418.753L144.743 418.728C156.176 418.522 167.898 418.03 182.007 417.235L196.055 416.401C200.99 416.103 206.075 415.797 207.885 415.696L210.334 415.563C215.533 415.292 218.885 415.191 220.954 415.259L223.273 415.351C256.81 416.637 282.981 414.881 299.819 410.74C307.499 408.851 312.994 406.509 316.067 403.844C319.395 400.957 319.97 397.483 317.502 394.415C309.805 384.844 297.172 379.436 276.761 376.553L275.707 376.407C258.748 374.102 237.656 373.394 197.574 373.366L191.807 373.36C184.007 373.337 176.54 373.225 166.628 373.003L142.246 372.422C134.949 372.263 130.844 372.213 126.271 372.22L122.571 372.237Z" fill="white"/>
<ellipse cx="191.686" cy="403.519" rx="125.857" ry="13.7599" fill="#E7EAEE"/>
<path fill-rule="evenodd" clip-rule="evenodd" d="M217.5 305.822C219.785 306.244 221.35 303.906 224.888 296.11L225.148 295.545L225.406 295.006C229.622 286.321 234.499 283.552 240.035 286.7L242.256 279.833L241.51 279.474L240.792 279.135C229.3 273.756 223.093 273.429 222.171 278.154L222.08 278.67L222.003 279.086C221.328 282.688 219.679 289.625 218.486 295.531L218.285 296.538C217.289 301.599 216.706 305.675 217.5 305.822Z" fill="white"/>
<path fill-rule="evenodd" clip-rule="evenodd" d="M193.026 236.172C193.026 236.172 209.827 238.504 218.325 238.1C226.823 237.696 239.25 233.974 239.25 233.974L238.955 245.213C238.955 245.213 278.598 244.375 272.612 278.389C268.669 300.793 238.498 291.58 238.498 291.58L244.268 278.389C244.268 278.389 262.365 279.76 255.775 273.993C254.553 272.923 246.738 271.447 236.454 271.736C227.62 271.983 219.947 269.212 219.149 266.723C216.156 257.393 220.502 252.485 220.502 252.485C220.502 252.485 216.298 254.628 217.096 259.839C217.893 265.05 212.018 371.747 212.018 371.747C212.018 371.747 206.702 372.734 204.029 372.734C201.356 372.734 197.676 371.747 197.676 371.747L193.026 236.172Z" fill="white"/>
<path fill-rule="evenodd" clip-rule="evenodd" d="M193.026 236.172C193.026 236.172 201.888 372.627 200.654 372.413C199.724 372.252 197.676 371.747 197.676 371.747L193.026 236.172Z" fill="#E7EAEE"/>
<path fill-rule="evenodd" clip-rule="evenodd" d="M200.324 373.849C200.906 379.218 199.817 381.37 199.961 381.37C202.336 381.37 203.754 381.321 207.564 381.01C207.564 381.01 207.351 378.698 207.351 377.61C207.351 376.311 207.564 373.849 207.564 373.849H200.324Z" fill="white"/>
<path d="M194.453 112.007C194.453 112.007 185.593 115.492 185.593 108.932C185.593 102.372 192.429 105.642 192.429 105.642" fill="white"/>
<path d="M233.437 112.692C235.297 113.125 241.116 116.926 241.116 107.723C241.116 103.331 234.471 106.504 234.471 106.504" fill="white"/>
<path d="M212.293 74.3118C204.974 75.0556 189.633 82.3459 192.426 103.175C194.591 119.321 206.122 136.725 213.207 136.725C220.163 136.725 231.875 122.074 233.576 107.649C237.049 78.19 219.613 73.568 212.293 74.3118Z" fill="white"/>
<path fill-rule="evenodd" clip-rule="evenodd" d="M212.565 89.217C212.954 88.2712 214.211 88.2082 214.685 89.1107C217.1 93.7135 219.806 96.921 222.783 98.7572C225.789 100.611 229.336 100.794 232.954 99.095C233.549 98.8154 234.248 99.0942 234.515 99.7178C234.782 100.341 234.516 101.073 233.921 101.353C229.609 103.378 225.255 103.153 221.584 100.89C218.723 99.1252 216.147 96.3213 213.843 92.4926L213.759 92.3502L213.683 92.505C211.823 96.204 209.423 99.1582 206.484 101.353L206.189 101.57C202.489 104.237 198.147 105.422 193.205 105.13C192.554 105.091 192.056 104.507 192.093 103.825C192.129 103.143 192.687 102.621 193.339 102.659C197.772 102.921 201.594 101.877 204.849 99.5312C208.135 97.1624 210.706 93.7336 212.565 89.217Z" fill="#E7EAEE"/>
<path fill-rule="evenodd" clip-rule="evenodd" d="M250.347 207.733C249.634 221.774 244.625 227.732 238.366 228.588C237.534 228.702 238.698 233.706 237.974 234.362C233.849 238.1 226.576 238.261 215.171 238.37C204.847 238.468 198.189 237.595 193.562 235.608C193.208 235.456 193.527 229.158 193.161 229.124C187.365 228.588 180.688 223.2 179.065 208.547C173.572 158.935 190.094 149.346 205.819 141.441C206.672 141.013 207.136 140.266 207.983 139.841C209.771 138.945 209.305 141.007 213.368 141.007C217.431 141.007 217.431 139.391 219.261 140.307C219.944 140.648 220.057 142.782 220.736 143.158C236.828 152.052 252.316 168.924 250.347 207.733Z" fill="white"/>
<path fill-rule="evenodd" clip-rule="evenodd" d="M220.736 143.158C241.986 151.213 251.857 172.738 250.347 207.733C248.537 249.69 203.04 212.129 218.208 175.983C221.821 167.372 226.569 203.833 226.621 203.987C227.831 207.572 231.526 210.353 235.263 211.839C235.263 211.839 236.935 186.567 234.028 174.652C231.293 163.445 220.736 143.158 220.736 143.158Z" fill="white"/>
<path fill-rule="evenodd" clip-rule="evenodd" d="M207.053 134.869C207.053 134.869 207.65 136.744 207.442 137.903C207.235 139.062 205.967 140.937 205.967 140.937C205.967 140.937 170.691 152.207 178.86 208.455C187.947 249.247 219.806 222.719 214.278 190.193C214.049 166.04 208.828 174.218 204.907 200.832C203.947 207.343 192.158 209.192 192.158 209.192" fill="white"/>
<ellipse cx="223.691" cy="119.093" rx="3.24866" ry="2.784" fill="#FFB61D"/>
<ellipse cx="204.199" cy="119.093" rx="3.24866" ry="2.784" fill="#FFB61D"/>
<path d="M207.476 122.848C207.616 122.181 210.525 122.704 211.343 123.844L211.595 124.197C212.358 125.255 212.822 125.589 213.806 125.589C215.062 125.589 215.49 125.353 216.204 124.374L216.395 124.105C217.224 122.915 220.15 122.051 220.372 122.694C220.594 123.336 220.277 124.046 219.663 124.278C219.203 124.452 218.942 124.681 218.493 125.296L218.283 125.593C217.057 127.352 216.037 128.064 213.806 128.064C211.994 128.064 210.944 127.353 209.825 125.846L209.454 125.331L209.287 125.103C208.918 124.614 208.693 124.416 208.431 124.338L208.375 124.323C207.738 124.176 207.335 123.515 207.476 122.848Z" fill="#00160A"/>
<path d="M209.771 104.451C208.363 104 207.08 103.871 206.338 103.965C205.54 104.067 204.53 104.498 203.599 104.896C202.853 105.214 202.157 105.512 201.66 105.601C201.166 105.69 200.425 105.661 199.703 105.633C198.791 105.597 197.909 105.563 197.594 105.769C197.03 106.137 197.872 106.733 198.364 106.801C200.066 107.037 201.306 107.093 202.127 106.955C202.856 106.833 203.513 106.622 204.407 106.263L205.339 105.891C205.959 105.65 206.119 105.611 206.338 105.606L206.492 105.606C207.116 105.622 208.038 105.818 209.231 106.201C209.705 106.353 210.21 106.084 210.359 105.601C210.508 105.118 210.245 104.603 209.771 104.451Z" fill="#00160A"/>
<path d="M213.253 117.729C213.92 115.69 214.306 105.645 213.572 105.637C212.838 105.629 212.237 106.246 212.229 107.015C212.219 108.096 212.225 109.132 212.231 110.105C212.25 113.022 212.264 115.356 211.798 116.549L211.699 116.796C211.098 118.359 210.929 119.69 212.537 120.001C213.497 120.187 217.808 117.626 217.559 116.903C217.311 116.179 216.55 115.804 215.859 116.064L215.678 116.131C215.268 116.282 214.731 116.752 214.249 117.175C213.82 117.551 213.433 117.89 213.215 117.935L213.18 117.942L213.253 117.729Z" fill="#00160A"/>
<path d="M218.71 104.451C220.118 104 221.401 103.871 222.143 103.965C222.941 104.067 223.951 104.498 224.882 104.896C225.628 105.214 226.324 105.512 226.821 105.601C227.315 105.69 228.055 105.661 228.777 105.633C229.69 105.597 230.572 105.563 230.887 105.769C231.451 106.137 230.609 106.733 230.117 106.801C228.415 107.037 227.175 107.093 226.354 106.955C225.625 106.833 224.968 106.622 224.074 106.263L223.142 105.891C222.521 105.65 222.362 105.611 222.143 105.606L221.989 105.606C221.365 105.622 220.443 105.818 219.25 106.201C218.776 106.353 218.27 106.084 218.121 105.601C217.972 105.118 218.236 104.603 218.71 104.451Z" fill="#00160A"/>
<path d="M226.315 111.445C226.686 110.782 226.473 109.929 225.84 109.54C225.617 109.403 225.44 109.664 225.171 110.058C224.678 110.782 223.878 111.958 221.919 111.958C219.946 111.958 219.137 110.771 218.644 110.049C218.382 109.664 218.209 109.411 217.999 109.54C217.365 109.929 217.153 110.782 217.524 111.445C218.461 113.119 219.985 113.989 221.919 113.989C223.854 113.989 225.378 113.119 226.315 111.445Z" fill="#00160A"/>
<path d="M209.349 109.571C209.966 109.987 210.144 110.849 209.746 111.495C208.729 113.15 207.103 113.989 205.035 113.989C202.952 113.989 201.343 113.134 200.395 111.447C200.023 110.784 199.88 109.89 200.867 109.541C201.299 109.389 201.736 109.83 202.276 110.375C202.972 111.077 203.839 111.951 205.085 111.951C207.442 111.951 208.277 110.714 208.753 110.008C208.993 109.652 209.142 109.432 209.349 109.571Z" fill="#00160A"/>
<path fill-rule="evenodd" clip-rule="evenodd" d="M213.559 46.0724C206.112 47.4637 200.408 53.3733 199.294 62.1036C199.241 62.5187 199.206 62.9235 199.189 63.318C197.898 63.742 194.076 65.0346 194.181 65.4382C194.278 65.8139 197.669 64.9695 199.197 64.5686C199.419 68.3963 201.483 71.1404 204.962 72.8193C205.847 73.2466 206.799 73.5975 207.81 73.8804C204.215 75.0664 200.54 77.2362 197.637 80.2174C192.273 85.726 189.786 93.4956 191.11 103.368C191.122 103.457 191.135 103.547 191.147 103.636C186.868 102.255 184.264 104.087 184.264 108.932C184.264 113.793 191.05 116.524 193.92 114.548C196.813 122.572 201.318 129.99 205.847 134.284C205.71 134.595 205.681 134.959 205.792 135.309C206.125 136.355 206.226 137.144 206.136 137.646L206.117 137.738C206.015 138.181 205.721 138.813 205.227 139.603L205.132 139.751L204.856 139.842C181.141 147.82 172.067 170.937 177.546 208.665L177.566 208.772L177.667 209.217C180.311 220.689 185.315 227.383 191.549 229.118C191.549 229.149 191.549 229.18 191.549 229.212C192.639 267.855 193.591 298.645 194.407 321.583L194.703 329.728L194.998 337.449C195.415 348.061 195.79 356.219 196.122 361.928L196.334 365.431C196.698 371.163 196.911 372.425 197.692 373.003L197.769 373.056L197.827 373.093C197.995 373.195 198.202 373.286 198.449 373.367C198.159 373.367 197.867 373.366 197.574 373.366L191.807 373.36C184.007 373.337 176.54 373.225 166.628 373.003L142.246 372.422C134.949 372.262 130.844 372.213 126.271 372.22L122.571 372.237C112.052 372.324 103.783 372.815 96.7821 373.848C79.9496 376.334 69.9418 382.171 65.5087 393.18C63.2457 398.801 64.3355 403.658 68.4911 407.441C72.0589 410.689 77.8633 413.145 85.764 414.944L86.205 415.043C99.7209 418.048 118.911 419.135 143.247 418.753L144.743 418.728C156.176 418.522 167.898 418.03 182.007 417.235L196.055 416.401C200.99 416.103 206.075 415.797 207.885 415.696L210.334 415.563C215.533 415.292 218.885 415.191 220.954 415.259L223.273 415.351C256.81 416.637 282.981 414.881 299.819 410.74C307.499 408.851 312.994 406.509 316.067 403.844C319.395 400.957 319.97 397.483 317.502 394.415C309.805 384.844 297.172 379.436 276.761 376.553L275.707 376.407C261.084 374.42 243.388 373.619 213.095 373.419L213.261 373.407C214.014 373.354 214.607 372.714 214.636 371.924L216.828 307.53C216.89 307.532 216.953 307.53 217.019 307.525C219.883 307.319 221.822 305.465 225.355 298.493L225.775 297.654L226.256 296.68C227.117 295.014 229.404 292.426 231.365 290.209L231.366 290.208C232.653 288.753 233.799 287.456 234.308 286.684C235.365 286.901 236.899 287.071 238.912 287.194L239.164 287.209L237.567 291.272L237.536 291.358C237.337 291.995 237.66 292.691 238.275 292.913C259.352 300.506 270.811 294.58 273.771 278.625C277.992 255.87 266.568 244.437 240.243 244.728L240.658 230.162C242.276 229.923 243.79 229.24 245.149 228.086C248.992 224.819 251.233 218.048 251.675 207.795C253.178 172.963 243.471 151.033 222.488 142.363L221.774 142.076L221.707 141.879C221.338 140.784 221.09 139.897 220.964 139.229L220.937 139.079C220.805 138.296 220.805 136.988 220.953 135.197C220.971 134.974 220.938 134.759 220.864 134.564C226.033 130.184 231.078 122.314 233.541 114.175L233.603 114.197C233.629 114.207 233.655 114.216 233.683 114.227L234.817 114.649C235.561 114.911 236.184 115.08 236.822 115.168C240.318 115.649 242.445 113.262 242.445 107.723C242.445 105.63 241.483 104.182 239.684 103.851C238.508 103.635 237.031 103.921 235.196 104.67C236.071 92.6309 233.379 84.0197 227.89 78.6381C225.822 76.6107 223.402 75.1253 220.89 74.1658C223.225 73.5114 225.565 72.4041 227.384 70.8889C231.558 67.4126 232.875 62.1839 230.48 55.3935L238.619 53.4912L238.685 53.4675C238.958 53.3491 239.026 52.6389 239.026 52.1084C239.026 51.5779 238.611 50.9702 238.297 51.0635L229.97 54.0676C227.292 47.839 220.542 44.7677 213.559 46.0724ZM200.857 375.226L201.257 375.227C203.174 375.23 205.047 375.239 206.876 375.252C206.735 376.933 206.701 378.981 206.841 380.48H201.279C201.225 379.281 201.082 377.062 200.857 375.226ZM199.226 375.225C199.099 376.286 198.996 377.483 198.903 378.559C198.83 379.404 198.764 380.174 198.697 380.745C198.652 380.783 198.608 380.824 198.568 380.869C195.458 384.329 192.241 386.581 188.917 387.649L188.375 387.819C185.533 388.689 180.209 390.061 180.315 390.03C177.995 390.723 176.871 391.521 176.476 393.187C175.826 395.931 178.477 397.136 185.353 397.183L185.876 397.184C187.005 397.182 188.002 397.062 190.196 396.698L191.903 396.413C193.624 396.133 194.643 396.013 195.575 396.003L195.979 396.006C196.469 396.02 196.974 396.073 198.08 396.221L199.432 396.405C200.214 396.51 200.766 396.574 201.35 396.624C203.767 396.833 205.613 396.658 207.159 395.881C211.161 393.87 211.648 388.868 209.029 381.296C209.026 381.287 209.023 381.278 209.019 381.269C209.033 381.185 209.04 381.098 209.04 381.01V375.269C242.452 375.578 261.067 377.458 276.367 379.619L277.542 379.789C296.597 382.615 308.257 387.721 315.244 396.408C318.064 399.915 312.977 404.327 299.143 407.729C282.43 411.839 256.143 413.572 222.355 412.219L221.328 412.178C218.91 412.077 214.841 412.213 208.099 412.586L201.899 412.951C199.54 413.092 196.824 413.256 194.257 413.411C190.42 413.643 186.914 413.855 185.422 413.941L181.851 414.146C168.36 414.906 157.062 415.388 146.118 415.608L144.693 415.635C119.853 416.082 100.337 415.023 86.8183 412.017C71.1223 408.527 63.6567 402.806 67.0486 394.382C70.9601 384.668 81.1028 378.13 96.719 375.746L97.1943 375.674C101.862 374.985 107.131 375.093 113.304 375.219C116.375 375.282 119.671 375.349 123.227 375.326L126.274 375.313C131.22 375.306 164.189 374.804 164.189 374.804C175.731 375.072 183.947 375.2 192.72 375.219L199.226 375.225ZM218.875 136.071C216.913 137.376 214.978 138.117 213.207 138.117C211.816 138.117 210.324 137.584 208.793 136.619C208.847 137.174 208.833 137.686 208.749 138.16C208.568 139.17 207.998 140.961 207.052 142.36C207.025 142.399 206.997 142.436 206.968 142.471C208.236 143.224 210.197 144.006 212.904 143.609C215.886 143.171 217.534 142.061 218.534 141.198C218.379 139.541 218.579 137.575 218.875 136.071ZM218.861 142.857C217.623 144.553 215.536 146.393 212.904 146.393C208.937 146.393 206.331 145.361 205.484 143.174C183.544 150.635 173.877 171.393 178.836 207.144L178.984 208.19L179.065 208.547C182.108 221.785 189.288 227.6 196.357 226.693L196.574 226.663C202.903 225.731 209.073 219.349 210.725 212.077L210.969 210.982C212.201 205.368 212.949 200.406 212.949 196.327L212.945 194.635C212.904 185.75 212.541 179.174 212.085 176.274L212.052 176.076L212.002 176.22C211.809 176.766 211.603 177.435 211.386 178.224L211.321 178.464C210.324 182.169 209.154 188.191 207.823 196.556C206.846 202.705 191.145 210.423 190.91 209.694C190.837 209.467 192.124 208.539 193.952 207.22L193.954 207.219L193.961 207.213C194.674 206.7 195.468 206.126 196.296 205.513C196.267 205.455 196.237 205.395 196.207 205.331C193.893 200.471 192.468 196.206 191.942 192.521C191.421 188.877 192.636 174.214 193.408 174.218L193.505 174.222C193.894 174.25 193.809 176.15 193.682 178.967C193.544 182.037 193.356 186.196 193.681 190.207C194.034 194.562 195.878 198.949 197.158 201.997C197.512 202.838 197.823 203.577 198.047 204.186C201.431 201.556 204.823 198.479 205.201 196.099L205.503 194.224C206.7 186.885 207.767 181.469 208.704 177.928L208.762 177.709C209.276 175.801 209.755 174.438 210.228 173.571C210.971 172.209 212.098 171.5 213.281 172.486C214.596 173.581 215.253 178.292 215.495 186.881C215.696 183.034 216.031 179.92 216.484 177.588C216.862 175.639 217.323 174.228 217.898 173.336C218.715 172.07 219.991 171.638 221.152 172.488L221.231 172.548C223.725 174.548 225.406 184.249 225.504 196.864L225.509 197.919L225.533 198.067C227.056 204.097 230.213 207.611 233.077 209.717C238.922 199.685 235.52 181.101 234.077 173.217C233.661 170.946 233.408 169.562 233.586 169.529C234.388 169.377 235.156 169.935 235.302 170.776C237.149 181.472 238.099 189.38 238.151 194.54C238.203 199.76 237.368 205.261 235.653 211.041C235.628 211.125 235.597 211.205 235.561 211.281C236.434 211.751 237.202 212.091 237.78 212.347C238.528 212.678 238.961 212.87 238.905 213.024C238.643 213.742 228.05 213.742 222.868 198.263C222.85 198.209 222.851 198.132 222.851 198.063L222.851 198.039C222.851 191.582 222.429 185.825 221.687 181.433C221.349 179.433 220.955 177.781 220.533 176.568L220.477 176.409C220.289 175.889 220.104 175.482 219.946 175.2L219.939 175.187L219.906 175.256C219.628 175.856 219.343 176.831 219.088 178.143L219.047 178.361C218.917 179.053 218.757 179.821 218.58 180.661C217.821 184.286 216.775 189.272 216.751 195.485L216.75 196.413C216.75 207.251 224.024 220.375 232.293 225.518C240.886 230.861 248.246 225.609 249.02 207.67C250.506 173.223 241.425 150.142 220.285 144.467C219.594 144.282 219.141 143.683 218.861 142.857ZM215.466 199.733C215.165 203.58 214.398 207.932 213.31 212.721C211.415 221.067 204.402 228.322 196.944 229.42C195.655 229.61 194.399 229.621 193.184 229.455C193.259 230.591 193.344 232.228 193.438 234.293C193.704 234.255 193.983 234.291 194.246 234.415C196.192 235.331 206.964 236.598 216.321 236.794L217.016 236.807C228.146 236.982 236.117 235.686 237.614 233.307L237.705 230.13C235.903 229.846 234.021 229.095 232.117 227.911C223.885 222.792 216.718 210.759 215.466 199.733ZM186.922 108.932C186.692 105.327 189.479 105.564 191.537 105.975C191.975 108.259 192.585 110.565 193.331 112.837L193.226 112.834C190.94 112.767 187.16 112.658 186.922 108.932ZM235.033 106.559C234.991 106.975 234.945 107.395 234.895 107.82C234.714 109.354 234.416 110.909 234.019 112.462C236.682 112.792 241.141 112.974 240.308 106.779C239.984 104.366 237.015 105.675 235.033 106.559ZM212.81 72.8736C213.946 72.8028 215.123 72.845 216.315 73.0019C219.332 72.9631 223.846 71.5216 225.914 68.9521C234.027 58.8716 222.778 47.4514 214.04 48.9276C207.551 50.0237 201.429 54.7961 200.454 62.4314C199.986 66.0991 202.273 71.9399 212.81 72.8736ZM195.456 291.923C196.69 329.838 198.018 370.654 198.618 371.747C198.719 371.938 200.259 371.953 201.48 371.965L201.482 371.965H201.488C201.808 371.968 202.107 371.971 202.351 371.977L203.008 371.988L203.754 371.989C205.563 371.979 207.843 371.891 210.591 371.722L211.736 371.649L216.252 258.929C216.128 256.365 213.87 253.435 212.351 251.464C211.448 250.291 210.806 249.459 211.033 249.246C211.633 248.684 216.327 254.197 217.192 256.147C217.209 256.213 217.227 256.302 217.248 256.41C217.781 254.947 218.531 253.412 219.507 251.817C219.859 251.242 224.326 244.752 221.139 251.443C214.316 265.771 222.045 271.595 235.537 271.646L235.587 271.646L235.593 271.646C235.705 271.647 235.788 271.648 235.972 271.624C241.225 270.924 246.926 271.247 251.417 271.861C255.831 272.464 263.461 276.966 254.825 279.507C252.761 280.115 249.445 279.748 245.616 278.876L244.579 278.696L238.498 291.58L239.548 291.818C257.977 297.955 268.665 292.228 271.369 278.582L271.451 278.153C275.309 257.356 267.028 244.486 240.21 245.859L240.175 247.08C240.151 247.934 239.47 248.605 238.655 248.579C237.839 248.554 237.199 247.84 237.223 246.987L237.25 246.06C227.859 246.782 234.009 245.547 237.28 244.996L237.502 237.223C233.635 239.284 226.511 240.053 217.039 239.901L216.262 239.887C207.085 239.694 196.817 238.541 193.575 237.448C194.066 249.216 194.745 270.087 195.456 291.92L195.456 291.923ZM241.949 280.124L239.757 285.699C238.238 285.457 237.191 285.176 236.405 284.964C236.145 284.894 235.913 284.832 235.703 284.782C235.417 282.566 235.424 280.959 235.691 280.011C235.923 279.187 236.258 278.722 236.695 278.513C237.637 278.835 238.746 279.186 240.021 279.566L240.981 279.847L241.949 280.124ZM233.705 284.936C233.821 284.857 233.943 284.797 234.069 284.755C233.751 282.972 233.749 280.259 234.015 279.312C234.197 278.667 234.351 278.159 234.558 277.75C234.254 277.641 233.792 277.393 233.224 277.088C230.607 275.685 225.728 273.07 223.58 277.174C219.955 284.099 216.77 305.854 217.697 305.86C219.015 305.869 222.367 300.959 224.573 296.598L224.67 296.403L225.239 295.244C226.97 291.727 229.737 287.664 233.705 284.936ZM244.053 277.327C243.58 277.24 243.112 277.46 242.858 277.87C242.757 277.805 242.646 277.756 242.525 277.725L234.346 275.609L234.166 275.502C227.947 271.82 223.925 272.133 221.119 276.234C220.124 277.688 219.626 279.516 219.386 281.942L219.358 282.249L219.323 282.667C219.291 283.088 219.266 283.522 219.24 284.058L219.14 286.295L219.122 286.634C219.091 287.161 219.06 287.504 219.015 287.827L218.987 288.02L218.896 288.539L218.841 288.807C218.809 288.951 218.771 289.117 218.721 289.323L218.575 289.902L217.688 293.255C217.53 294.021 217.38 294.742 217.24 295.418L218.191 267.487C221.179 271.372 227.528 273.418 236.598 272.827L237.346 272.783C237.697 272.764 238.051 272.744 238.409 272.724L238.42 272.723L238.485 272.72L238.499 272.719C242.449 272.496 246.736 272.255 250.619 273.159C260.304 275.412 256.343 277.483 255.49 277.929L255.439 277.955L255.413 277.969L255.302 278.024C253.938 278.66 250.737 278.531 244.688 277.443L244.053 277.327ZM180.64 391.89L180.962 391.791C180.806 391.841 192.487 390.108 198.739 383.296C199.919 382.011 207.08 382.955 207.08 382.955L207.087 382.974C209.783 387.649 210.171 392.509 206.79 393.943C205.596 394.449 203.58 394.953 201.544 394.777L201.248 394.75L200.831 394.706C200.545 394.674 200.236 394.636 199.875 394.588L197.863 394.316C196.804 394.181 196.336 394.147 195.697 394.147C194.579 394.147 189.209 394.974 189.209 394.974C187.57 395.237 186.736 395.327 185.873 395.328C182.421 395.333 180.247 394.444 179.177 393.988L179.075 393.943C178.98 393.897 178.902 393.853 178.841 393.811L178.775 393.762L178.77 393.783C178.893 393.26 179.312 392.314 180.64 391.89ZM232.896 107.82C233.233 104.956 233.345 102.28 233.255 99.7915C229.163 101.494 225.066 101.181 221.584 99.0336C218.723 97.2692 216.147 94.4653 213.843 90.6366L213.759 90.4948L213.683 90.649C211.823 94.348 209.423 97.3022 206.484 99.4968L206.189 99.7137C202.501 102.372 198.175 103.559 193.252 103.277L193.272 103.368C196.079 116.309 205.835 136.247 213.368 136.725C216.25 136.908 220.431 132.033 224.309 126.748C228.495 121.042 232.127 114.34 232.896 107.82ZM226.074 80.6706C229.76 84.2848 232.362 89.8062 233.083 97.1874C233.04 97.2018 232.996 97.2189 232.954 97.239C229.336 98.9382 225.789 99.3739 222.783 97.5198C219.805 95.6837 217.1 91.8575 214.685 87.2547C214.211 86.3522 212.954 86.4152 212.564 87.361C212.487 87.5488 212.403 87.7605 212.31 87.9924C211.243 90.6661 209.097 96.0408 204.442 98.8781C201.053 100.944 196.053 101.467 193.584 101.725L193.581 101.725L193.577 101.725C193.357 101.749 193.157 101.769 192.98 101.789C192.889 101.187 192.819 100.589 192.771 99.9946C195.592 99.4595 201.521 97.4144 203.905 95.8463C206.928 93.857 207.854 91.8269 209.393 88.4517C209.675 87.8332 209.978 87.1693 210.318 86.4523C210.612 85.8333 211.308 81.708 209.658 84.8451C209.557 85.0357 209.451 85.2437 209.337 85.4671L209.336 85.4684L209.336 85.4692L209.336 85.4698C207.619 88.8314 204.131 95.6604 192.702 98.7755C192.48 91.845 195.155 85.6347 199.066 81.6185C202.719 77.8677 208.243 75.3877 212.441 74.9612C216.857 74.5125 222.196 76.8687 226.074 80.6706Z" fill="#00160A"/>
<path fill-rule="evenodd" clip-rule="evenodd" d="M106.515 296.856C105.808 288.962 102.3 281.148 96.7421 275.783C92.6951 271.876 86.8949 268.605 81.4825 271.402C73.156 276.608 70.92 287.29 71.7596 296.856C72.8004 308.711 78.0877 316.022 88.2453 320.389C93.9687 322.848 97.7733 326.093 100.88 331.748C103.365 336.269 104.814 341.931 107.937 346.03C112.606 352.157 118.449 354.881 125.65 353.863C127.078 353.863 131.676 358.348 133.113 361.064C136.865 368.157 140.086 375.647 141.565 383.656C141.996 385.994 141.691 394.737 143.214 396.425C145.999 399.511 145.183 393.568 145.017 391.774C143.633 376.917 138.541 364.26 131.148 351.771C133.419 348.664 133.747 340.756 133.033 338.261C131.148 330.528 107.939 312.748 106.515 296.856Z" fill="white"/>
<path fill-rule="evenodd" clip-rule="evenodd" d="M80.6305 269.61L80.5891 269.634C72.8543 274.469 70.0253 281.226 70.5807 296.912C71.1643 313.394 76.8718 316.316 87.1183 320.825L87.4304 320.961C93.1824 323.433 96.81 326.655 99.7775 332.056L100.015 332.497C100.534 333.476 100.997 334.475 101.65 336.001L102.82 338.781C104.399 342.512 105.405 344.474 106.885 346.416C111.741 352.789 117.815 355.512 125.139 354.477L125.208 354.462L125.276 354.439C126.411 353.972 130.269 358.082 132.005 361.364C136.223 369.336 138.946 376.288 140.302 383.285L140.394 383.773C140.481 384.247 140.539 384.976 140.606 386.361L140.698 388.411C140.72 388.889 140.741 389.305 140.763 389.698L140.776 389.932C140.996 393.746 141.358 395.924 142.194 396.85C143.311 398.087 144.341 398.321 144.906 397.246C145.228 396.634 145.303 395.648 145.234 394.259L145.206 393.795C145.19 393.558 145.17 393.311 145.146 393.047L144.955 391.099C143.601 377.59 139.195 365.332 131.415 352.049L131.264 351.792L131.36 351.631C133.222 348.412 133.901 341.203 133.009 338.084C131.483 332.754 128.466 328.441 122.976 322.753L122.02 321.767C112.737 312.149 109.623 307.188 107.071 296.603L106.193 292.941L106.171 292.851C104.075 284.389 101.876 279.353 97.7171 275.339C92.7272 270.522 85.7126 266.983 80.6305 269.61ZM96.9165 276.249C100.732 279.931 103.429 284.584 105.41 292.335L105.836 294.049L106.428 296.538C107.071 303.21 109.057 311.07 121.19 322.647L121.835 323.313C127.393 329.027 130.394 333.259 131.877 338.439C132.72 341.385 131.948 348.85 130.088 351.395C129.939 351.599 129.926 351.878 130.055 352.097C137.967 365.461 142.423 377.711 143.779 391.219L143.945 392.902L143.991 393.412C144.012 393.655 144.029 393.884 144.042 394.105L144.054 394.323C144.111 395.478 144.048 396.313 143.871 396.649L143.863 396.671L143.884 396.678C143.727 396.642 143.438 396.427 143.053 396C142.518 395.407 142.172 393.394 141.971 390.125L141.929 389.39L141.775 386.086C141.713 384.834 141.656 384.131 141.567 383.615L141.554 383.539C140.205 376.23 137.409 369.026 133.039 360.764L132.943 360.585C130.899 356.824 126.93 352.614 124.937 353.254L124.925 353.257L124.981 353.25C118.079 354.226 112.411 351.685 107.808 345.644C106.368 343.754 105.382 341.803 103.762 337.952L102.927 335.963C102.046 333.884 101.502 332.713 100.801 331.439C97.7562 325.897 94.0066 322.514 88.2034 319.957L87.8789 319.816C77.8338 315.498 72.7687 308.323 71.7571 296.799L71.7282 296.455C70.8753 285.812 73.9251 276.634 80.9661 272.079L81.1735 271.946L81.1533 271.957C85.7158 269.599 92.2476 271.742 96.9165 276.249Z" fill="#00160A"/>
<path fill-rule="evenodd" clip-rule="evenodd" d="M139.233 354.052C142.65 354.602 145.627 352.506 146.773 349.014C147.763 345.996 147.86 342.485 148.985 339.63C149.76 337.665 150.992 335.996 152.5 334.584C156.475 330.862 160.626 329.93 161.811 323.752C162.74 318.909 161.587 309.036 155.133 310.02C150.643 310.708 147.014 316.992 144.923 320.956C142.335 325.86 139.921 331.115 138.561 336.502C136.321 345.376 136.018 355.225 135.99 364.313C135.987 365.408 135.769 378.786 137.262 378.566C138.741 378.349 137.805 364.463 137.931 361.588" fill="white"/>
<path fill-rule="evenodd" clip-rule="evenodd" d="M90.6237 279.823C89.4862 280.434 89.7093 282.4 91.0702 285.909C92.4338 289.424 94.4445 292.071 96.4988 293.275C98.6001 294.507 100.519 293.999 101.05 291.839C101.528 289.891 98.2552 285.016 94.7802 281.793C92.9716 280.115 91.5598 279.32 90.6237 279.823ZM93.997 282.719C96.7861 286.251 100.224 290.854 99.9055 292.15C99.5942 293.417 98.5679 293.689 97.0756 292.814C95.2764 291.76 93.1111 288.767 91.8419 285.495L91.6551 285.003C90.4945 282.659 90.4978 280.544 91.1629 280.305C91.7959 280.078 93.1677 281.669 93.997 282.719ZM149.152 318.25C148.688 316.922 150.082 315.286 152.654 314.108C155.415 312.842 157.211 312.751 157.203 314.326C157.196 315.39 155.826 316.877 153.736 318.214C151.616 319.569 149.638 319.642 149.152 318.25ZM156.004 314.41C155.957 314.403 155.898 314.399 155.826 314.399L155.748 314.402C155.671 314.406 155.577 314.403 155.463 314.399C154.755 314.378 153.298 314.335 150.573 315.751C149.989 316.054 149.615 317.667 149.671 317.825C149.804 318.207 151.545 318.784 153.12 317.777C153.776 317.357 154.352 316.616 154.82 316.014C155.017 315.76 155.196 315.531 155.353 315.361C155.706 314.977 155.921 314.645 155.994 314.444L156.004 314.41ZM151.546 326.44L151.261 326.924C150.012 329.058 149.257 330.57 148.953 331.525C148.548 332.802 148.982 333.705 150.11 333.318C151.139 332.966 153.121 331.221 155.587 328.673C157.582 326.611 158.58 323.478 157.815 321.977C156.775 319.937 154.348 321.721 151.546 326.44ZM156.773 321.941C157.245 322.867 156.421 326.073 154.757 327.792L154.199 328.363C153.765 328.802 153.301 329.294 152.84 329.783L152.84 329.783L152.84 329.783C151.425 331.283 150.046 332.744 149.715 332.489C149.329 332.192 150.585 329.407 151.959 327.093C153.283 324.862 155.019 322.803 155.898 322.158C156.469 321.738 156.674 321.747 156.773 321.941ZM140.353 345.524C140.018 347.857 140.318 349.599 141.442 349.84C142.599 350.088 143.827 348.475 145.197 345.185C146.504 342.044 146.162 339.067 144.452 338.616C142.687 338.151 141.084 340.727 140.388 345.286L140.353 345.524ZM144.163 339.816C144.927 340.018 145.323 342.116 144.335 344.81C143.558 346.926 141.442 351.951 140.883 348.017C140.797 347.419 140.797 346.636 140.93 345.708L141.002 345.239C141.611 341.491 143.382 339.61 144.163 339.816ZM79.1568 306.613C76.2639 303.308 74.5509 299.189 75.9744 297.388C77.6706 295.241 85.4986 302.668 85.3964 306.378C85.3368 308.544 84.4372 309.655 82.9464 309.371C81.8411 309.16 80.4939 308.141 79.1568 306.613ZM76.88 297.564L76.8391 297.621C76.0638 298.798 76.9697 302.958 79.4369 305.777C80.6147 307.122 82.3691 308.622 83.1579 308.772C83.8166 308.898 84.1745 308.456 84.2156 306.961C84.2534 305.589 82.7949 302.718 80.6599 300.692C80.4238 300.468 80.1417 300.166 79.8356 299.839L79.8355 299.839L79.8354 299.838L79.8353 299.838C78.9073 298.846 77.7591 297.617 77.0066 297.608C76.8871 297.606 76.8613 297.593 76.88 297.564ZM76.88 297.564L76.8845 297.558C76.8828 297.56 76.8813 297.562 76.88 297.564ZM111.07 342.693C111.729 345.697 113.033 347.652 114.797 348.724C115.994 349.451 117.105 349.664 118.378 349.664C121.109 349.664 122.376 348.39 121.901 346.32C121.544 344.767 120.173 342.838 118.346 341.157C116.524 339.48 114.57 338.343 113.15 338.251C111.209 338.124 110.427 339.766 111.07 342.693ZM113.076 339.486C114.175 339.557 115.923 340.574 117.566 342.086C119.227 343.615 120.464 345.355 120.752 346.609C121.028 347.809 120.414 349.045 118.378 349.045C117.294 349.045 116.371 348.868 115.39 348.272C113.918 347.378 112.219 345.096 111.63 342.415C111.141 340.186 112.095 339.421 113.076 339.486ZM116 329.985C113.555 327.857 112.385 325.621 113.089 324.39C113.891 322.989 115.992 323.9 118.12 326.35C119.452 327.882 121.316 330.533 121.867 331.842C122.091 332.376 122.167 332.773 121.995 333.136C121.736 333.685 121.22 333.7 120.616 333.441C119.846 333.11 118.543 332.162 116.617 330.518L116 329.985ZM114.79 325.127C114.531 325.015 114.325 324.975 114.19 324.992C114.128 324.999 114.112 325.009 114.102 325.027C114.087 325.053 114.061 325.087 114.028 325.129C113.862 325.342 113.544 325.751 113.82 326.278C114.255 327.109 115.64 328.682 116.755 329.652C118.244 330.948 119.804 331.857 120.733 332.399C120.907 332.5 121.058 332.588 121.183 332.664L121.262 332.71L121.175 332.538C120.533 331.31 118.482 328.635 117.378 327.335L117.247 327.182C116.319 326.115 115.463 325.42 114.79 325.127ZM90.0531 313.254C89.3488 314.485 90.5187 316.721 92.9638 318.849L93.5814 319.382C95.5069 321.026 96.8098 321.974 97.5803 322.305C98.1839 322.564 98.7002 322.549 98.9594 322C99.1309 321.637 99.0548 321.24 98.8306 320.706C98.2804 319.397 96.4156 316.746 95.0844 315.214C92.9562 312.764 90.8553 311.853 90.0531 313.254ZM91.1544 313.856C91.2889 313.839 91.4949 313.879 91.7539 313.991C92.4273 314.284 93.283 314.979 94.2107 316.046L94.3421 316.199C95.4464 317.499 96.9062 320.175 97.5482 321.402L97.6354 321.574L97.5566 321.528C96.7637 321.048 95.4861 320.055 93.7188 318.516C92.6039 317.546 91.2186 315.973 90.7842 315.142C90.5081 314.615 90.8265 314.206 90.9918 313.993C91.0246 313.951 91.0514 313.917 91.0663 313.891C91.0763 313.873 91.0917 313.863 91.1544 313.856ZM104.777 315.137C102.332 313.009 101.162 310.773 101.866 309.542C102.669 308.141 104.77 309.052 106.898 311.502C108.229 313.034 110.094 315.685 110.644 316.994C110.868 317.528 110.944 317.925 110.773 318.288C110.514 318.837 109.997 318.852 109.394 318.593C108.623 318.262 107.32 317.314 105.395 315.67L104.777 315.137ZM103.567 310.279C103.308 310.167 103.102 310.127 102.968 310.144C102.905 310.151 102.89 310.161 102.88 310.179C102.877 310.183 102.874 310.189 102.871 310.194C102.77 310.369 102.47 310.889 102.79 311.502C103.225 312.332 104.495 314.434 104.941 314.804C106.267 315.904 107.931 316.756 109.033 317.321C109.428 317.524 109.751 317.689 109.961 317.816L110.039 317.862L109.952 317.69C109.31 316.462 107.26 313.787 106.155 312.487L106.024 312.334C105.096 311.267 104.241 310.572 103.567 310.279Z" fill="#FFB61D"/>
<path fill-rule="evenodd" clip-rule="evenodd" d="M155.047 309.408C158.308 308.911 161.191 310.886 162.389 314.498C163.331 317.335 162.925 321.088 162.39 323.874C161.705 327.447 160.277 329.357 157.131 331.722L155.241 333.112C154.588 333.599 154.052 334.023 153.54 334.465C153.318 334.657 153.102 334.849 152.893 335.045C151.372 336.47 150.237 338.076 149.531 339.867L149.434 340.118C149.06 341.122 148.824 342.118 148.482 343.974L148.189 345.599C147.892 347.215 147.668 348.189 147.332 349.215C146.039 353.153 143.309 355.239 139.734 354.664C139.411 354.612 138.352 354.696 140.726 354.192C143.099 353.688 145.095 352.222 146.214 348.813C146.529 347.853 146.743 346.922 147.031 345.355L147.325 343.722C147.709 341.639 147.97 340.585 148.439 339.394C149.216 337.422 150.458 335.667 152.106 334.123C152.327 333.916 152.555 333.712 152.789 333.509C153.258 333.105 153.743 332.717 154.308 332.29L154.883 331.863C155.359 331.513 156.085 330.983 156.232 330.874L156.64 330.567C159.423 328.442 161.22 326.771 161.823 323.63C162.317 321.054 161.552 317.525 160.683 314.904C159.652 311.798 157.836 309.615 155.218 310.014C151.363 310.605 141.792 325.279 139.146 334.262C136.968 341.654 136.416 353.003 136.56 363.191L136.583 364.643L136.58 366.645C136.581 368.267 136.597 369.621 136.637 371.031L136.648 371.385C136.713 373.424 136.825 375.099 136.994 376.304C137.049 376.701 137.11 377.041 137.175 377.318L137.208 377.453L137.226 377.369C137.3 376.998 137.36 376.512 137.405 375.921L137.42 375.72L137.446 375.295C137.519 373.977 137.534 372.291 137.503 370.185L137.476 368.714C137.464 368.173 137.449 367.592 137.431 366.916L137.332 363.029C137.321 362.425 137.322 362.108 137.331 361.813L137.375 360.687C137.407 359.772 137.427 358.822 137.449 357.312L137.483 355.124C137.572 350.121 137.747 347.63 138.316 344.567C138.401 344.104 138.495 343.648 138.597 343.198C140.088 336.625 143.296 331.893 146.4 326.095C147.332 324.354 152.224 321.687 152.269 322.025C152.314 322.364 148.08 324.365 146.795 326.604C144.061 331.366 141.204 337.058 139.747 343.484C139.648 343.918 139.558 344.357 139.475 344.803L139.367 345.405C138.9 348.123 138.746 350.557 138.664 355.159L138.602 358.993C138.587 359.772 138.569 360.394 138.545 361.025L138.51 361.944C138.502 362.283 138.505 362.7 138.526 363.596L138.651 368.451C138.662 368.927 138.671 369.368 138.678 369.809L138.698 371.228C138.753 376.732 138.508 379.008 137.344 379.179C136.433 379.313 136.09 378.384 135.825 376.483C135.659 375.296 135.547 373.708 135.48 371.79L135.467 371.426C135.418 369.871 135.4 368.417 135.399 366.649L135.4 364.328C135.15 353.741 136.308 341.704 138.608 333.898C141.38 324.485 150.575 310.093 155.047 309.408Z" fill="#00160A"/>
<ellipse cx="137.159" cy="384.811" rx="23.036" ry="17.9413" fill="white"/>
<ellipse cx="128.006" cy="384.811" rx="13.8835" ry="17.9413" fill="#E7EAEE"/>
<path fill-rule="evenodd" clip-rule="evenodd" d="M160.195 366.096H114.123C113.715 366.096 113.384 366.442 113.384 366.869C113.384 380.086 114.575 388.315 117.739 394.028C121.307 400.47 127.454 403.525 137.159 403.525C146.863 403.525 153.01 400.47 156.578 394.028C159.742 388.315 160.933 380.086 160.933 366.869C160.933 366.442 160.602 366.096 160.195 366.096ZM116.044 367.643H158.864L158.864 367.82C158.807 380.225 158.814 387.976 155.891 393.252C152.613 399.172 146.374 402.597 137.159 402.597C127.943 402.597 122.295 398.553 119.017 392.634L118.906 392.432C116.103 387.23 116.131 380.273 116.047 368.308L116.044 367.643Z" fill="#00160A"/>
</svg>
